<?xml version="1.0" encoding="utf-8"?>
<!-- Generator: Adobe Illustrator 25.0.1, SVG Export Plug-In . SVG Version: 6.00 Build 0)  -->
<svg version="1.1" id="Calque_1" xmlns="http://www.w3.org/2000/svg" xmlns:xlink="http://www.w3.org/1999/xlink" x="0px" y="0px"
	 viewBox="0 0 144 144" style="enable-background:new 0 0 144 144;" xml:space="preserve">
<style type="text/css">
	.st0{fill:#FF0000;}
	.st1{fill:#CCCCCC;stroke:#FFFFFF;stroke-width:0.25;stroke-miterlimit:10;}
	.st2{fill:#999999;stroke:#FFFFFF;stroke-width:0.25;stroke-miterlimit:10;}
	.st3{fill:#333333;stroke:#FFFFFF;stroke-width:0.25;stroke-miterlimit:10;}
	.st4{fill:#F2F2F2;stroke:#FFFFFF;stroke-width:0.25;stroke-miterlimit:10;}
	.st5{fill:#666666;}
	.st6{fill:#FF0033;}
</style>
<g>
	<polygon class="st0" points="143.17,23.28 136.89,29.56 100.63,29.56 100.63,33.65 132.8,33.65 127.1,39.35 100.63,39.35 
		100.63,43.44 123.01,43.44 117.31,49.14 100.63,49.14 100.63,53.23 113.22,53.23 107.52,58.93 100.63,58.93 100.63,63.02 
		103.43,63.02 89.72,76.73 89.72,23.28 	"/>
	<polygon class="st0" points="0.93,23.28 7.21,29.56 43.47,29.56 43.47,33.65 11.3,33.65 17,39.35 43.47,39.35 43.47,43.44 
		21.09,43.44 26.79,49.14 43.47,49.14 43.47,53.23 30.88,53.23 36.58,58.93 43.47,58.93 43.47,63.02 40.67,63.02 54.38,76.73 
		54.38,23.28 	"/>
	<g>
		<path class="st1" d="M107.35,45.05l-0.16-0.27c-0.17-12.81-7.16-23.86-17.52-29.76l-0.15-0.25l0,0.17
			c-0.02-0.01-0.05-0.03-0.07-0.04l0.07,0.13l0.22,40.53L107.35,45.05z"/>
		<path class="st2" d="M36.49,46.77l0.16,0.27c0.17,12.81,7.16,23.86,17.52,29.76l0.15,0.25l0-0.17c0.02,0.01,0.05,0.03,0.07,0.04
			l-0.07-0.13l-0.22-40.53L36.49,46.77z"/>
		<path class="st3" d="M89.75,35.88l-0.3-20.62l0.34,0C79.19,9.27,65.86,8.94,54.7,15.54l-0.34,0L89.75,35.88z"/>
		<path class="st1" d="M89.52,76.32l0.2,0l-0.1-0.06c0.14-0.08,0.28-0.16,0.42-0.24l-0.82,0.02L54.2,56.42l-0.09,20.32l0.69-0.01
			C65.94,82.86,79.07,82.27,89.52,76.32z"/>
		<path class="st2" d="M89.55,76.09c11.22-6.76,17.49-18.65,17.5-30.77l0.1-0.17L71.76,66.36l17.72,9.84L89.55,76.09z"/>
		<path class="st4" d="M54.01,15.89c-11.22,6.76-17.49,18.65-17.5,30.77l-0.1,0.17L71.8,25.62l-17.72-9.84L54.01,15.89z"/>
	</g>
	<g>
		<path class="st5" d="M103.9,107.41c0,2.72-0.01,4.94-0.02,6.65s-0.02,2.63-0.02,2.76c-0.11,0.01-0.62,0.05-1.53,0.12
			c-0.91,0.07-2.08,0.11-3.52,0.11c-0.9,0-1.8-0.08-2.71-0.25c-0.91-0.17-1.69-0.4-2.35-0.71c-0.88-0.41-1.59-0.96-2.13-1.66
			s-0.81-1.55-0.81-2.53c0-1.04,0.32-1.94,0.96-2.71s1.53-1.38,2.67-1.85c0.71-0.3,1.66-0.56,2.85-0.8
			c1.19-0.24,2.55-0.41,4.07-0.54c-0.07-0.86-0.28-1.56-0.64-2.11c-0.36-0.55-0.89-0.97-1.6-1.25c-0.48-0.2-1.02-0.34-1.61-0.42
			c-0.59-0.08-1.28-0.12-2.07-0.12c-0.49,0-0.91,0.01-1.26,0.03c-0.35,0.02-0.81,0.05-1.41,0.08l0.26-2.19
			c0.16-0.01,0.49-0.03,0.98-0.06s1.15-0.04,2-0.04c1.29,0,2.45,0.13,3.46,0.4c1.01,0.27,1.86,0.71,2.53,1.31
			c0.63,0.57,1.1,1.27,1.42,2.11C103.74,104.6,103.9,105.82,103.9,107.41z M101.38,111.37c0-0.37,0-0.84,0-1.42
			c0-0.57-0.01-1.23-0.02-1.97c-0.48,0.02-1.33,0.12-2.53,0.29c-1.21,0.17-2.22,0.41-3.04,0.73c-0.61,0.23-1.16,0.58-1.64,1.04
			c-0.48,0.46-0.72,1.03-0.72,1.71c0,0.75,0.2,1.35,0.61,1.8c0.41,0.46,0.96,0.8,1.66,1.04c0.54,0.19,1.13,0.32,1.79,0.4
			s1.34,0.12,2.06,0.12c0.22,0,0.49,0,0.81-0.02c0.32-0.01,0.65-0.02,1-0.03c0-0.08,0-0.44,0.01-1.09
			C101.38,113.34,101.38,112.47,101.38,111.37z"/>
		<path class="st5" d="M118.83,111.96c0,0.81-0.2,1.54-0.59,2.17c-0.4,0.64-0.91,1.15-1.55,1.55c-0.67,0.42-1.46,0.73-2.38,0.95
			c-0.92,0.21-1.93,0.32-3.04,0.32c-0.54,0-1.1-0.02-1.67-0.07c-0.58-0.05-0.9-0.08-0.98-0.09l-0.1-2.16
			c0.1,0.01,0.48,0.04,1.14,0.09c0.66,0.05,1.32,0.07,1.98,0.07c0.38,0,0.88-0.03,1.48-0.1c0.6-0.07,1.1-0.19,1.5-0.36
			c0.55-0.24,0.95-0.54,1.22-0.89c0.26-0.35,0.39-0.77,0.39-1.27c0-0.45-0.12-0.81-0.35-1.09c-0.23-0.28-0.55-0.55-0.95-0.81
			c-0.44-0.3-1.04-0.61-1.8-0.95c-0.76-0.33-1.4-0.66-1.92-0.96c-0.74-0.45-1.3-0.98-1.69-1.6c-0.39-0.61-0.58-1.33-0.58-2.14
			s0.22-1.54,0.67-2.19c0.45-0.65,1.04-1.17,1.79-1.56c0.65-0.35,1.37-0.58,2.15-0.7c0.79-0.12,1.55-0.17,2.28-0.17
			c0.67,0,1.22,0.01,1.65,0.03c0.43,0.02,0.68,0.03,0.74,0.03l0.18,2.19c-0.08,0-0.42-0.02-1.01-0.07c-0.6-0.04-1.26-0.07-1.97-0.07
			c-0.51,0-0.99,0.04-1.44,0.13c-0.46,0.09-0.84,0.21-1.16,0.38c-0.47,0.24-0.81,0.53-1.01,0.87c-0.2,0.34-0.3,0.67-0.3,0.99
			c0,0.44,0.14,0.82,0.43,1.14c0.29,0.32,0.62,0.59,1.01,0.81c0.45,0.26,1.07,0.58,1.85,0.94c0.78,0.36,1.35,0.65,1.7,0.87
			c0.77,0.48,1.35,1.02,1.76,1.61C118.63,110.45,118.83,111.15,118.83,111.96z"/>
		<path class="st5" d="M134.91,107.41c0,2.72-0.01,4.94-0.02,6.65s-0.02,2.63-0.02,2.76c-0.11,0.01-0.62,0.05-1.53,0.12
			c-0.91,0.07-2.08,0.11-3.52,0.11c-0.9,0-1.8-0.08-2.71-0.25c-0.91-0.17-1.69-0.4-2.35-0.71c-0.88-0.41-1.59-0.96-2.13-1.66
			s-0.81-1.55-0.81-2.53c0-1.04,0.32-1.94,0.96-2.71s1.53-1.38,2.67-1.85c0.71-0.3,1.66-0.56,2.85-0.8
			c1.19-0.24,2.55-0.41,4.07-0.54c-0.07-0.86-0.28-1.56-0.64-2.11c-0.36-0.55-0.89-0.97-1.6-1.25c-0.48-0.2-1.02-0.34-1.61-0.42
			c-0.59-0.08-1.28-0.12-2.07-0.12c-0.49,0-0.91,0.01-1.26,0.03c-0.35,0.02-0.81,0.05-1.41,0.08l0.26-2.19
			c0.16-0.01,0.49-0.03,0.98-0.06s1.15-0.04,2-0.04c1.29,0,2.45,0.13,3.46,0.4c1.01,0.27,1.86,0.71,2.53,1.31
			c0.63,0.57,1.1,1.27,1.42,2.11C134.75,104.6,134.91,105.82,134.91,107.41z M132.39,111.37c0-0.37,0-0.84,0-1.42
			c0-0.57-0.01-1.23-0.02-1.97c-0.48,0.02-1.33,0.12-2.53,0.29c-1.21,0.17-2.22,0.41-3.04,0.73c-0.61,0.23-1.16,0.58-1.64,1.04
			c-0.48,0.46-0.72,1.03-0.72,1.71c0,0.75,0.2,1.35,0.61,1.8c0.41,0.46,0.96,0.8,1.66,1.04c0.54,0.19,1.13,0.32,1.79,0.4
			s1.34,0.12,2.06,0.12c0.22,0,0.49,0,0.81-0.02c0.32-0.01,0.65-0.02,1-0.03c0-0.08,0-0.44,0.01-1.09
			C132.39,113.34,132.39,112.47,132.39,111.37z"/>
	</g>
	<path d="M34.17,101.13c0,1.83-0.52,3.44-1.57,4.82c-1.05,1.38-2.47,2.4-4.28,3.07c-0.97,0.38-2.1,0.66-3.39,0.85
		c-1.29,0.18-2.55,0.28-3.79,0.29l0.04,6.89h-6.1c0.01-1.12,0.03-2.64,0.05-4.58c0.02-1.93,0.03-4.84,0.03-8.72
		c0-1.39-0.01-3.07-0.02-5.06c-0.01-1.98-0.03-4.09-0.06-6.31c0.59-0.01,1.25-0.02,1.97-0.03c0.73-0.01,1.4-0.01,2.01-0.01
		c2.64,0,4.74,0.12,6.28,0.35c1.54,0.23,2.9,0.64,4.09,1.22c1.51,0.71,2.68,1.68,3.5,2.9C33.75,98.03,34.17,99.47,34.17,101.13z
		 M27.9,101.52c0-0.95-0.21-1.77-0.64-2.47c-0.42-0.7-1.07-1.26-1.93-1.68c-0.58-0.29-1.19-0.48-1.85-0.54
		c-0.66-0.07-1.32-0.1-2-0.1c-0.07,0-0.17,0-0.28,0c-0.11,0-0.2,0-0.28,0c0,0.17-0.01,0.89-0.02,2.15
		c-0.01,1.26-0.02,2.28-0.02,3.07c0,0.76,0,1.69,0,2.77c0,1.09,0,1.68,0,1.78c0.09,0,0.19,0,0.31,0c0.12,0,0.21,0,0.28,0
		c0.6,0,1.26-0.05,1.98-0.16c0.72-0.1,1.32-0.28,1.8-0.53c0.86-0.42,1.51-0.96,1.96-1.63C27.68,103.51,27.9,102.62,27.9,101.52z"/>
	<path class="st6" d="M81.88,115l-2.42,2.05c-0.15-0.21-0.94-1.27-2.39-3.19c-1.45-1.92-3.41-4.49-5.89-7.72h-0.04
		c-2.12,2.67-4.03,5.1-5.73,7.31c-1.7,2.21-2.6,3.4-2.71,3.56l-2.24-1.86c0.09-0.1,0.83-0.99,2.22-2.68
		c1.39-1.69,3.64-4.47,6.75-8.36v-0.04c-1.49-1.94-3.22-4.17-5.19-6.7c-1.98-2.52-3.06-3.9-3.24-4.12l2.42-1.81
		c0.16,0.22,1,1.33,2.52,3.32c1.52,1.99,3.31,4.32,5.37,7h0.04c1.73-2.22,3.47-4.46,5.21-6.71c1.74-2.25,2.67-3.45,2.8-3.61
		l2.2,1.62c-0.12,0.16-1.27,1.6-3.43,4.31c-2.17,2.71-3.89,4.86-5.18,6.43v0.04c2.18,2.71,4.2,5.21,6.03,7.5
		C80.8,113.64,81.77,114.86,81.88,115z"/>
	<path d="M48.62,104.04c0-1.71,0.01-3.66,0.03-5.85c0.02-2.19,0.03-4.13,0.05-5.81h-6.1c0.02,2.27,0.04,4.5,0.06,6.68
		c0.01,2.18,0.02,3.98,0.02,5.41c0,3.39-0.01,6.07-0.03,8.05c-0.02,1.98-0.03,3.49-0.05,4.53h6.1c-0.01-1.4-0.03-3.05-0.05-4.95
		C48.63,110.2,48.62,107.52,48.62,104.04z M45.7,97.28c-0.87,0-1.58-0.71-1.58-1.58c0-0.87,0.71-1.58,1.58-1.58
		c0.87,0,1.58,0.71,1.58,1.58C47.28,96.57,46.57,97.28,45.7,97.28z"/>
</g>
</svg>
